<?xml version="1.0" encoding="UTF-8"?>
<!DOCTYPE svg PUBLIC "-//W3C//DTD SVG 1.1//EN" "http://www.w3.org/Graphics/SVG/1.1/DTD/svg11.dtd">
<svg xmlns="http://www.w3.org/2000/svg" version="1.1" width="500px" height="500px" style="shape-rendering:geometricPrecision; text-rendering:geometricPrecision; image-rendering:optimizeQuality; fill-rule:evenodd; clip-rule:evenodd" xmlns:xlink="http://www.w3.org/1999/xlink">
<g><path style="opacity:1" fill="#000000" d="M -0.5,-0.5 C 166.167,-0.5 332.833,-0.5 499.5,-0.5C 499.5,166.167 499.5,332.833 499.5,499.5C 332.833,499.5 166.167,499.5 -0.5,499.5C -0.5,332.833 -0.5,166.167 -0.5,-0.5 Z"/></g>
<g><path style="opacity:1" fill="#a9a9a9" d="M 237.5,129.5 C 240.625,128.521 243.958,128.187 247.5,128.5C 252.5,128.5 257.5,128.5 262.5,128.5C 262.5,135.167 262.5,141.833 262.5,148.5C 256.155,148.653 249.822,148.986 243.5,149.5C 245.399,143.118 246.066,136.451 245.5,129.5C 242.833,129.5 240.167,129.5 237.5,129.5 Z"/></g>
<g><path style="opacity:1" fill="#939393" d="M 247.5,128.5 C 256.678,127.334 266.011,127.334 275.5,128.5C 276.46,135.078 276.793,141.745 276.5,148.5C 273.833,148.5 271.167,148.5 268.5,148.5C 266.5,148.5 264.5,148.5 262.5,148.5C 262.5,141.833 262.5,135.167 262.5,128.5C 257.5,128.5 252.5,128.5 247.5,128.5 Z"/></g>
<g><path style="opacity:1" fill="#c1c1c1" d="M 230.5,130.5 C 232.607,129.532 234.941,129.198 237.5,129.5C 240.167,129.5 242.833,129.5 245.5,129.5C 246.066,136.451 245.399,143.118 243.5,149.5C 239.146,150.086 234.812,150.752 230.5,151.5C 231.81,144.401 231.81,137.401 230.5,130.5 Z"/></g>
<g><path style="opacity:1" fill="#797979" d="M 275.5,128.5 C 283.899,129.349 292.233,130.682 300.5,132.5C 301.81,139.599 301.81,146.599 300.5,153.5C 289.739,151.631 279.072,149.964 268.5,148.5C 271.167,148.5 273.833,148.5 276.5,148.5C 276.793,141.745 276.46,135.078 275.5,128.5 Z"/></g>
<g><path style="opacity:1" fill="#d7d7d7" d="M 230.5,130.5 C 231.81,137.401 231.81,144.401 230.5,151.5C 200.233,156.801 173.9,169.801 151.5,190.5C 160.792,203.423 170.792,215.756 181.5,227.5C 192.661,212.831 203.661,197.998 214.5,183C 221.492,182.5 228.492,182.334 235.5,182.5C 235.5,222.5 235.5,262.5 235.5,302.5C 224.833,302.5 214.167,302.5 203.5,302.5C 203.667,283.497 203.5,264.497 203,245.5C 198.217,252.617 193.051,259.45 187.5,266C 182.953,267.545 178.287,267.879 173.5,267C 167.619,259.958 161.953,252.792 156.5,245.5C 156.44,244.957 156.107,244.624 155.5,244.5C 154.5,263.822 154.167,283.155 154.5,302.5C 144.167,302.5 133.833,302.5 123.5,302.5C 123.667,275.831 123.5,249.165 123,222.5C 122.283,223.044 121.783,223.711 121.5,224.5C 106.497,248.006 97.3298,273.672 94,301.5C 90.7578,263.461 100.424,229.128 123,198.5C 123.499,193.177 123.666,187.844 123.5,182.5C 127.884,182.826 132.217,182.492 136.5,181.5C 162.023,154.067 193.357,137.067 230.5,130.5 Z"/></g>
<g><path style="opacity:1" fill="#595959" d="M 300.5,132.5 C 306.822,134.496 313.156,136.496 319.5,138.5C 319.5,145.5 319.5,152.5 319.5,159.5C 313.083,157.471 306.749,155.471 300.5,153.5C 301.81,146.599 301.81,139.599 300.5,132.5 Z"/></g>
<g><path style="opacity:1" fill="#414141" d="M 319.5,138.5 C 325.352,140.928 331.019,143.594 336.5,146.5C 336.824,153.354 336.491,160.021 335.5,166.5C 329.864,164.678 324.531,162.345 319.5,159.5C 319.5,152.5 319.5,145.5 319.5,138.5 Z"/></g>
<g><path style="opacity:1" fill="#282828" d="M 336.5,146.5 C 343.033,149.381 349.033,153.047 354.5,157.5C 354.824,164.354 354.491,171.021 353.5,177.5C 347.158,174.332 341.158,170.665 335.5,166.5C 336.491,160.021 336.824,153.354 336.5,146.5 Z"/></g>
<g><path style="opacity:1" fill="#121212" d="M 354.5,157.5 C 359.769,160.922 364.936,164.589 370,168.5C 371.379,173.036 371.879,177.703 371.5,182.5C 367.167,182.5 362.833,182.5 358.5,182.5C 357.027,180.605 355.36,178.939 353.5,177.5C 354.491,171.021 354.824,164.354 354.5,157.5 Z"/></g>
<g><path style="opacity:1" fill="#d7d7d7" d="M 358.5,182.5 C 362.833,182.5 367.167,182.5 371.5,182.5C 372.833,182.5 374.167,182.5 375.5,182.5C 375.5,222.5 375.5,262.5 375.5,302.5C 365.167,302.5 354.833,302.5 344.5,302.5C 344.667,283.164 344.5,263.83 344,244.5C 343.283,245.044 342.783,245.711 342.5,246.5C 337.858,252.815 333.191,259.148 328.5,265.5C 323.7,267.484 318.7,267.984 313.5,267C 307.667,259.833 301.833,252.667 296,245.5C 295.5,264.497 295.333,283.497 295.5,302.5C 284.833,302.5 274.167,302.5 263.5,302.5C 263.5,262.5 263.5,222.5 263.5,182.5C 270.841,182.334 278.174,182.5 285.5,183C 296.962,198.292 308.962,213.126 321.5,227.5C 332.565,213.049 343.399,198.383 354,183.5C 355.356,182.62 356.856,182.286 358.5,182.5 Z"/></g>
<g><path style="opacity:1" fill="#2f2f2f" d="M 123.5,302.5 C 122.833,276.5 122.167,250.5 121.5,224.5C 121.783,223.711 122.283,223.044 123,222.5C 123.5,249.165 123.667,275.831 123.5,302.5 Z"/></g>
<g><path style="opacity:1" fill="#aeaeae" d="M 156.5,245.5 C 155.833,264.5 155.167,283.5 154.5,302.5C 154.167,283.155 154.5,263.822 155.5,244.5C 156.107,244.624 156.44,244.957 156.5,245.5 Z"/></g>
<g><path style="opacity:1" fill="#959595" d="M 344.5,302.5 C 343.833,283.833 343.167,265.167 342.5,246.5C 342.783,245.711 343.283,245.044 344,244.5C 344.5,263.83 344.667,283.164 344.5,302.5 Z"/></g>
</svg>
